<svg width="17" height="22" viewBox="0 0 17 22" fill="none" xmlns="http://www.w3.org/2000/svg">
    <path fill-rule="evenodd" clip-rule="evenodd" d="M12.6697 0.625C12.8126 1.86928 12.3268 3.09427 11.6124 3.9913C10.8694 4.8787 9.6788 5.55389 8.52628 5.46708C8.37388 4.27101 8.9549 2.99781 9.61213 2.22617C10.3551 1.34842 11.641 0.673229 12.6697 0.625ZM16.4607 7.79151C16.3559 7.84941 14.1842 9.14192 14.2128 11.7944C14.2414 14.9775 16.9561 16.0289 17.0037 16.0385C16.9846 16.106 16.5751 17.5529 15.5558 19.019C14.7081 20.3115 13.8128 21.5751 12.3935 21.5944C11.7181 21.6085 11.2636 21.4128 10.7906 21.209C10.2964 20.9961 9.78193 20.7745 8.97399 20.7745C8.1206 20.7745 7.58248 21.0022 7.0625 21.2221C6.61333 21.4122 6.17769 21.5965 5.564 21.6233C4.21145 21.6812 3.18274 20.2536 2.2969 18.9708C0.534759 16.3568 -0.836856 11.6112 1.00149 8.37993C1.88732 6.79803 3.51612 5.77559 5.2592 5.74668C6.02641 5.73025 6.76299 6.0304 7.40806 6.29324C7.90021 6.49379 8.33915 6.67263 8.69776 6.67263C9.01104 6.67263 9.43554 6.50226 9.93095 6.30336C10.716 5.98825 11.6792 5.60162 12.6602 5.70809C13.327 5.72736 15.232 5.97816 16.4607 7.79151Z" fill="#12ADC1"/>
</svg>
