<?xml version="1.0" encoding="UTF-8"?>
<svg id="_Слой_2" data-name="Слой 2" xmlns="http://www.w3.org/2000/svg" viewBox="0 0 403.66 86.55">
  <defs>
    <style>
      .cls-1 {
        fill: #ae8c5e;
      }
    </style>
  </defs>
  <g id="Layer_1">
    <path d="M0,24.95c0-.6,.27-.9,.8-.9H3.44c.18,0,.36,.05,.53,.14,.18,.1,.33,.28,.46,.56l12.08,23.81,.78,2.3-.24-2.33-.19-23.59c0-.26,.07-.47,.21-.64,.14-.17,.34-.25,.62-.25h2.72c.23,0,.41,.07,.56,.21,.15,.14,.22,.36,.22,.67V57.76c0,.58-.28,.87-.85,.87h-2.57c-.18,0-.36-.04-.56-.13-.19-.09-.35-.27-.46-.55L4.73,34.48l-.85-2.38,.27,2.4,.15,23.23c0,.6-.26,.9-.78,.9H.8c-.53,0-.8-.3-.8-.9V24.95Z"/>
    <path d="M50.19,57.71c.1,.28,.09,.5-.04,.67-.12,.17-.3,.25-.55,.25h-3.13c-.18,0-.35-.05-.53-.15-.18-.1-.3-.28-.36-.56l-1.62-6.38h-10.48l-1.6,6.38c-.06,.28-.18,.46-.36,.56-.18,.1-.36,.15-.53,.15h-3.13c-.24,0-.42-.09-.53-.25-.11-.17-.13-.39-.05-.67l9.24-32.93c.08-.27,.2-.47,.35-.58,.15-.11,.33-.17,.52-.17h2.69c.19,0,.37,.06,.53,.17,.16,.11,.28,.31,.36,.58l9.21,32.93Zm-15.66-10.23h8.41l-3.83-15.18-.36-2.57-.36,2.57-3.85,15.18Z"/>
    <path d="M65.12,24.93c0-.32,.08-.55,.24-.68,.16-.13,.33-.19,.51-.19h2.91c.32,0,.54,.08,.67,.25,.12,.17,.18,.41,.18,.72l-.03,25.63c0,1.29-.22,2.47-.67,3.52-.44,1.05-1.05,1.94-1.81,2.68-.76,.74-1.66,1.31-2.69,1.71-1.03,.4-2.14,.61-3.32,.61-1.26,0-2.47-.24-3.62-.72-1.15-.48-2.1-1.12-2.85-1.93-.16-.16-.29-.37-.39-.63-.1-.26-.03-.5,.19-.73l1.58-1.84c.23-.23,.45-.32,.67-.27,.22,.05,.42,.17,.59,.36,.35,.34,.84,.67,1.47,.98,.62,.31,1.34,.47,2.14,.47,.62,0,1.18-.12,1.7-.35,.52-.23,.96-.56,1.33-.98,.37-.42,.66-.93,.87-1.53,.21-.6,.31-1.25,.31-1.96V24.93Z"/>
    <path d="M76.29,35.21c0-1.6,.23-3.11,.68-4.54,.45-1.42,1.13-2.67,2.03-3.75,.9-1.08,2.01-1.92,3.35-2.55,1.33-.62,2.88-.93,4.64-.93s3.29,.31,4.62,.93c1.33,.62,2.46,1.47,3.37,2.53,.91,1.07,1.6,2.31,2.06,3.73,.46,1.42,.69,2.93,.69,4.53v12.34c0,1.6-.23,3.11-.69,4.53-.46,1.42-1.14,2.67-2.05,3.73-.91,1.07-2.03,1.91-3.37,2.53-1.34,.62-2.89,.93-4.63,.93s-3.28-.31-4.61-.93c-1.33-.62-2.44-1.47-3.35-2.53-.9-1.07-1.59-2.31-2.05-3.73-.46-1.42-.69-2.93-.69-4.53v-12.32Zm4.49,12.61c0,1,.13,1.94,.4,2.81,.27,.87,.66,1.63,1.19,2.27,.53,.64,1.17,1.14,1.94,1.52,.77,.37,1.66,.56,2.68,.56s1.92-.18,2.69-.56c.78-.37,1.43-.88,1.97-1.52,.53-.64,.93-1.39,1.2-2.26,.27-.86,.4-1.8,.4-2.8v-12.97c0-.99-.14-1.91-.41-2.78s-.67-1.62-1.2-2.27c-.53-.65-1.18-1.16-1.95-1.54-.77-.38-1.67-.57-2.69-.57s-1.89,.19-2.67,.56c-.78,.37-1.43,.88-1.95,1.53-.53,.65-.92,1.41-1.19,2.28-.27,.87-.4,1.8-.4,2.79v12.95Z"/>
    <path d="M101.85,24.88c0-.27,.07-.48,.21-.62,.14-.14,.31-.21,.52-.21h19.45c.19,0,.36,.07,.5,.21,.14,.14,.21,.34,.21,.62v2.69c0,.28-.07,.47-.21,.59-.14,.12-.3,.18-.5,.18h-7.49v29.46c0,.28-.07,.48-.2,.62-.13,.14-.3,.21-.51,.21h-3.05c-.23,0-.4-.07-.53-.21-.13-.14-.2-.34-.2-.62V28.34h-7.47c-.21,0-.38-.06-.52-.18-.14-.12-.21-.32-.21-.59v-2.69Z"/>
    <path d="M274.95,24.88c0-.27,.07-.48,.21-.62,.14-.14,.31-.21,.52-.21h19.45c.19,0,.36,.07,.5,.21,.14,.14,.21,.34,.21,.62v2.69c0,.28-.07,.47-.21,.59-.14,.12-.3,.18-.5,.18h-7.49v29.46c0,.28-.06,.48-.19,.62-.13,.14-.3,.21-.51,.21h-3.05c-.23,0-.4-.07-.53-.21-.13-.14-.19-.34-.19-.62V28.34h-7.47c-.21,0-.38-.06-.52-.18-.14-.12-.21-.32-.21-.59v-2.69Z"/>
    <path d="M320.03,57.71c.1,.28,.08,.5-.04,.67-.12,.17-.3,.25-.55,.25h-3.13c-.18,0-.35-.05-.53-.15-.18-.1-.3-.28-.36-.56l-1.62-6.38h-10.48l-1.6,6.38c-.06,.28-.19,.46-.36,.56-.18,.1-.35,.15-.53,.15h-3.13c-.24,0-.42-.09-.53-.25-.11-.17-.13-.39-.05-.67l9.24-32.93c.08-.27,.2-.47,.35-.58,.15-.11,.33-.17,.52-.17h2.69c.19,0,.37,.06,.53,.17,.16,.11,.28,.31,.36,.58l9.21,32.93Zm-15.66-10.23h8.41l-3.83-15.18-.36-2.57-.36,2.57-3.85,15.18Z"/>
    <path d="M325.47,25.12c0-.31,.08-.55,.23-.74,.15-.19,.38-.28,.69-.28h3.1c.61,0,.92,.34,.92,1.02v4.15c0,.52-.09,.96-.27,1.32-.18,.36-.42,.66-.71,.9-.3,.23-.64,.41-1.03,.52-.39,.11-.79,.17-1.19,.17-.5,0-.75-.2-.75-.61v-.99c0-.19,.07-.33,.22-.41s.32-.12,.51-.12c.22,0,.38-.06,.47-.17,.09-.11,.13-.28,.13-.49s-.04-.36-.11-.45c-.07-.09-.21-.13-.4-.13h-.99c-.23,0-.42-.07-.58-.22-.16-.15-.24-.38-.24-.7v-2.76Z"/>
    <path d="M338.91,24.95c0-.6,.27-.9,.8-.9h2.89c.53,0,.8,.3,.8,.9v29.41h11.32c.22,0,.41,.06,.54,.18,.14,.12,.21,.32,.21,.59v2.67c0,.28-.07,.48-.21,.62-.14,.14-.32,.21-.54,.21h-15.01c-.53,0-.8-.3-.8-.9V24.95Z"/>
    <path d="M362.65,24.95c0-.6,.27-.9,.82-.9h2.89c.52,0,.78,.3,.78,.9V57.73c0,.6-.26,.9-.78,.9h-2.89c-.55,0-.82-.3-.82-.9V24.95Z"/>
    <path d="M381.89,34.65l-.87-3.15,.29,3.13,.19,23.13c.03,.58-.21,.87-.73,.87h-2.84c-.26,0-.44-.08-.53-.24-.1-.16-.15-.38-.15-.65V24.83c.02-.24,.08-.44,.21-.58,.12-.15,.29-.22,.52-.22h3.42c.21,0,.36,.06,.45,.19,.09,.13,.17,.31,.26,.53l7.97,21.14,.39,2.01,.39-2.04,8.01-21.12c.08-.23,.17-.4,.26-.53,.09-.13,.24-.19,.45-.19h3.37c.22,0,.4,.07,.52,.22,.12,.15,.19,.34,.2,.58V57.73c.03,.6-.18,.9-.65,.9h-2.84c-.48,0-.72-.29-.72-.87l.22-23.11,.27-3.06-.82,3.06-6.79,17.87c-.08,.28-.18,.47-.29,.57-.11,.11-.27,.16-.46,.16h-2.18c-.18,0-.32-.05-.44-.16-.11-.1-.21-.29-.29-.57l-6.76-17.87Z"/>
    <path class="cls-1" d="M263.4,25.96l-3.42,.59c-6.98,1.21-13.47,3.06-19.38,5.23V13.07l-1.83,.82c-4.14,1.86-8.07,3.8-11.82,5.85l-.13-19.6-1.98,1.27c-9.65,6.16-18.49,13.16-26.39,20.87-7.61-7.19-16.18-14.18-25.6-20.84l-2.04-1.44V20.32c-4.08-2.29-8.26-4.38-12.53-6.25l-1.82-.8,.09,17.4c-6.25-2.15-12.54-3.55-18.78-4.18l-3.07-.31,24.56,30.69-.11-22.47c4.22,1.65,8.13,3.53,11.66,5.46v19.45l.26,.34c7.22,9.72,26.22,25.53,27.02,26.2l.82,.68,.83-.68c.81-.66,19.81-16.31,27.04-26.41l.43-.73-.12-18.11c3.32-1.75,6.97-3.47,10.92-5.07v21.42l25.39-31.01Zm-22.8,8.58c5.03-1.89,10.49-3.55,16.34-4.77l-16.34,19.95v-15.18Zm-99.97-5.1c5.64,.81,10.98,2.23,15.92,3.99l.08,16.01-16-20ZM224.26,4.88l.03,16.37c-5.78,3.32-11.12,6.91-16.14,10.88-1.09-1.2-2.22-2.4-3.37-3.6-1.45-1.5-2.94-2.99-4.47-4.48,7.21-7.03,15.17-13.4,23.95-19.17m-43.51,38.02c-2.42-1.63-4.87-3.15-7.35-4.56v-13.52c4.8,2.9,9.44,6.1,13.9,9.57-2.27,2.74-4.45,5.58-6.55,8.5m8.56-6.91c2.53,2.04,4.99,4.17,7.38,6.38-2.31,2.33-4.57,4.78-6.79,7.36-2.05-1.69-4.4-3.51-7.04-5.37,2.06-2.88,4.21-5.67,6.44-8.37m16.84-2.25c-2.62,2.16-5.15,4.42-7.61,6.81-2.45-2.27-4.97-4.45-7.56-6.54,2.4-2.81,4.9-5.53,7.51-8.15,2.7,2.61,5.25,5.24,7.66,7.89m-.39,17.77c-3.47,2.78-5.86,5.03-7.1,6.25-1.19-1.25-3.49-3.55-6.77-6.37,2.18-2.54,4.41-4.95,6.69-7.25,2.47,2.36,4.86,4.82,7.17,7.37m-15.54,1.86c4.75,4.09,7.41,7.07,7.45,7.12l.94,1.06,.97-1.04s2.82-2.98,7.91-7.07c1.62,1.85,3.2,3.75,4.74,5.68l-13.22,12.5-13.43-12.41c1.53-2.02,3.07-3.97,4.64-5.85m10.21-11.05c2.41-2.33,4.89-4.55,7.46-6.66,2.63,2.98,5.07,5.97,7.32,8.97-.24,.16-.48,.32-.71,.47-2.49,1.67-4.73,3.29-6.69,4.79-2.37-2.62-4.83-5.15-7.37-7.58m9.45-8.27c4.51-3.56,9.28-6.81,14.41-9.82l.02,14.94c-2.52,1.37-4.84,2.75-6.95,4.07-2.29-3.06-4.79-6.13-7.49-9.19M173.4,5.02c8.56,6.17,16.34,12.56,23.23,19.07-1.35,1.36-2.67,2.74-3.96,4.14-1.26,1.37-2.49,2.76-3.71,4.19-4.97-3.88-10.17-7.42-15.57-10.6V5.02Zm-10.53,28.1c-1.24-.53-2.49-1.03-3.74-1.5l-.07-14.35c4,1.82,7.92,3.84,11.75,6.04v13.62c-2.63-1.4-5.28-2.67-7.94-3.81m16.39,11.91c-2.04,2.94-4,5.97-5.86,9.07v-12.75c2.11,1.23,4.07,2.48,5.86,3.68m19.66,38.17c-3.68-3.11-18.75-16.01-25.27-24.4,2.42-4.27,5-8.37,7.72-12.31,2.55,1.8,4.85,3.58,6.85,5.23-1.84,2.21-3.64,4.5-5.43,6.9l-.7,.93,16.92,15.64,16.7-15.78-.72-.93c-1.77-2.26-3.59-4.47-5.47-6.62,1.89-1.45,4.02-2.99,6.4-4.58,.26-.18,.53-.36,.81-.53,2.84,3.96,5.34,7.92,7.47,11.87-6.49,8.66-21.59,21.49-25.28,24.59m25.41-29.59c-1.64-2.75-3.45-5.5-5.43-8.26,1.67-1.05,3.48-2.13,5.42-3.21l.02,11.47Zm2.74-15.88l-.1-15.02c3.51-1.96,7.17-3.83,11.04-5.61v15.68c-3.94,1.55-7.59,3.23-10.94,4.95"/>
  </g>
</svg>