<svg width="140" height="33" viewBox="0 0 140 33" fill="none" xmlns="http://www.w3.org/2000/svg">
<path fill-rule="evenodd" clip-rule="evenodd" d="M0.663038 32.7147V28.7102H14.4964V32.7147H0.663038ZM0 18.988C0 29.1074 15.161 29.1074 15.161 18.988C15.161 16.4661 15.161 10.6865 15.161 10.6865H11.1701C11.1701 13.3514 11.1701 16.0163 11.1701 18.6797C11.1701 23.8378 3.98934 23.8378 3.98934 18.6797C3.98934 16.0163 3.98934 13.3514 3.98934 10.6865H0C0 10.6865 0 16.4661 0 18.988Z" fill="#1B5BF7"/>
<path d="M24.8433 25.5921C23.5828 25.5921 22.436 25.3366 21.4026 24.8253C20.3902 24.2929 19.5841 23.4834 18.9849 22.3972C18.3856 21.3109 18.0859 19.9264 18.0859 18.2437C18.0859 16.6677 18.3958 15.3044 19.0158 14.1543C19.6358 13.0041 20.4522 12.1202 21.4646 11.5025C22.4772 10.8635 23.5517 10.544 24.6884 10.544C26.0316 10.544 27.0442 10.7783 27.7261 11.2469C28.4286 11.6942 29.0073 12.1947 29.462 12.7485L29.2759 13.2917L29.6789 11.2469H33.7085V25.2088H29.3688V22.1735L29.7098 23.1319C29.6686 23.1319 29.5445 23.2598 29.3379 23.5154C29.1313 23.7497 28.8213 24.0372 28.408 24.378C28.0154 24.6976 27.5195 24.9744 26.9202 25.2088C26.3415 25.4643 25.6493 25.5921 24.8433 25.5921ZM26.0833 21.9499C26.5999 21.9499 27.0648 21.8754 27.4782 21.7263C27.8914 21.5558 28.2529 21.3214 28.563 21.0234C28.8731 20.704 29.1415 20.3099 29.3688 19.8412V16.4227C29.2035 15.9541 28.9556 15.56 28.625 15.2405C28.2944 14.8998 27.9017 14.6442 27.4471 14.4738C26.9924 14.2821 26.4861 14.1862 25.9283 14.1862C25.3083 14.1862 24.7297 14.3566 24.1924 14.6974C23.6757 15.0169 23.2625 15.4642 22.9525 16.0393C22.6426 16.6144 22.4876 17.2746 22.4876 18.0202C22.4876 18.7657 22.6529 19.4365 22.9836 20.033C23.314 20.6293 23.7481 21.098 24.2854 21.4388C24.8433 21.7794 25.4426 21.9499 26.0833 21.9499Z" fill="#1D1A2F"/>
<path d="M48.1302 23.9628C47.531 24.4527 46.7766 24.8467 45.8674 25.1448C44.9788 25.443 44.1006 25.5921 43.2326 25.5921C41.6829 25.5921 40.3293 25.3047 39.1721 24.7295C38.0354 24.1331 37.1468 23.2918 36.5063 22.2054C35.8863 21.0979 35.5764 19.7668 35.5764 18.2119C35.5764 16.657 35.9174 15.3364 36.5992 14.2501C37.2812 13.1425 38.1698 12.3013 39.265 11.7261C40.3809 11.1511 41.5485 10.8635 42.7677 10.8635C43.9869 10.8635 45.0409 11.0339 45.9295 11.3747C46.8386 11.7155 47.6137 12.1627 48.2542 12.7165L46.1464 15.592C45.8571 15.3577 45.4541 15.1235 44.9376 14.8891C44.4416 14.6336 43.8526 14.5058 43.1706 14.5058C42.5715 14.5058 42.0237 14.6655 41.5278 14.9849C41.0318 15.3045 40.6392 15.7411 40.35 16.2949C40.0607 16.8486 39.9159 17.4878 39.9159 18.2119C39.9159 18.8934 40.071 19.5218 40.3809 20.0968C40.6908 20.6719 41.1146 21.1298 41.6518 21.4706C42.2098 21.7902 42.8607 21.9499 43.6047 21.9499C44.0799 21.9499 44.5138 21.886 44.9065 21.7583C45.3198 21.6091 45.6712 21.4067 45.9604 21.1512L48.1302 23.9628Z" fill="#1D1A2F"/>
<path d="M55.6165 25.5921C54.356 25.5921 53.2092 25.3366 52.1758 24.8253C51.1634 24.2929 50.3573 23.4834 49.7581 22.3972C49.1588 21.3109 48.8591 19.9264 48.8591 18.2437C48.8591 16.6677 49.1692 15.3044 49.789 14.1543C50.409 13.0041 51.2252 12.1202 52.2378 11.5025C53.2504 10.8635 54.3251 10.544 55.4616 10.544C56.8048 10.544 57.8174 10.7783 58.4994 11.2469C59.202 11.6942 59.7805 12.1947 60.2351 12.7485L60.0491 13.2917L60.4521 11.2469H64.4817V25.2088H60.1422V22.1735L60.4832 23.1319C60.4419 23.1319 60.3179 23.2598 60.1111 23.5154C59.9045 23.7497 59.5946 24.0372 59.1812 24.378C58.7886 24.6976 58.2926 24.9744 57.6934 25.2088C57.1147 25.4643 56.4225 25.5921 55.6165 25.5921ZM56.8565 21.9499C57.3731 21.9499 57.838 21.8754 58.2514 21.7263C58.6647 21.5558 59.0263 21.3214 59.3362 21.0234C59.6463 20.704 59.9149 20.3099 60.1422 19.8412V16.4227C59.9769 15.9541 59.7288 15.56 59.3982 15.2405C59.0676 14.8998 58.6749 14.6442 58.2204 14.4738C57.7658 14.2821 57.2595 14.1862 56.7015 14.1862C56.0815 14.1862 55.503 14.3566 54.9656 14.6974C54.4491 15.0169 54.0357 15.4642 53.7258 16.0393C53.4158 16.6144 53.2608 17.2746 53.2608 18.0202C53.2608 18.7657 53.4261 19.4365 53.7568 20.033C54.0874 20.6293 54.5213 21.098 55.0587 21.4388C55.6165 21.7794 56.2159 21.9499 56.8565 21.9499Z" fill="#1D1A2F"/>
<path d="M72.9211 25.5913C71.6604 25.5913 70.5343 25.293 69.5424 24.6967C68.5505 24.0791 67.7651 23.1951 67.1866 22.0449C66.6286 20.8948 66.3496 19.5317 66.3496 17.9555C66.3496 16.3793 66.6595 15.0374 67.2795 13.9298C67.8995 12.8223 68.7468 11.981 69.8214 11.4058C70.8959 10.8308 72.1151 10.5432 73.4789 10.5432C74.3469 10.5432 75.1735 10.6817 75.9588 10.9586C76.7648 11.2355 77.4363 11.6614 77.9737 12.2366V13.6424V0H82.2823V25.208H77.9426V22.4922L78.2836 23.4507C77.5809 24.0471 76.7958 24.5584 75.9277 24.9844C75.0599 25.389 74.0576 25.5913 72.9211 25.5913ZM74.3469 21.8214C74.9256 21.8214 75.4318 21.7468 75.8657 21.5977C76.3205 21.4274 76.713 21.1929 77.0436 20.8948C77.395 20.5754 77.6947 20.1813 77.9426 19.7126V16.2941C77.7773 15.8255 77.519 15.4315 77.1677 15.112C76.837 14.7712 76.4238 14.5156 75.9277 14.3452C75.4525 14.1535 74.9256 14.0576 74.3469 14.0576C73.7064 14.0576 73.107 14.228 72.549 14.5689C72.0118 14.8884 71.5779 15.3356 71.2472 15.9108C70.9166 16.4858 70.7513 17.1461 70.7513 17.8916C70.7513 18.6372 70.9166 19.3079 71.2472 19.9044C71.5779 20.5007 72.0118 20.9694 72.549 21.3102C73.107 21.6508 73.7064 21.8214 74.3469 21.8214Z" fill="#1D1A2F"/>
<path d="M91.8613 25.5906C90.2082 25.5906 88.8029 25.2712 87.6455 24.6322C86.5091 23.9934 85.641 23.1094 85.042 21.9803C84.4425 20.8516 84.1428 19.5524 84.1428 18.0827C84.1428 16.677 84.4942 15.4095 85.1969 14.2807C85.8995 13.1519 86.8397 12.2572 88.0176 11.5969C89.1956 10.9154 90.5077 10.5746 91.9543 10.5746C93.8968 10.5746 95.4879 11.1603 96.7279 12.3318C97.9884 13.482 98.8048 15.154 99.1767 17.3477L88.6376 20.7983L87.6766 18.3702L95.302 15.7184L94.4031 16.1337C94.2378 15.58 93.9381 15.1007 93.5041 14.6961C93.0908 14.2701 92.4604 14.057 91.6133 14.057C90.9727 14.057 90.4044 14.2168 89.9085 14.5363C89.4333 14.8345 89.0612 15.2711 88.7926 15.8463C88.5447 16.4001 88.4206 17.0603 88.4206 17.827C88.4206 18.7004 88.5756 19.4352 88.8855 20.0315C89.1956 20.6067 89.6191 21.0433 90.1564 21.3415C90.6938 21.6397 91.293 21.7889 91.9543 21.7889C92.4297 21.7889 92.8842 21.7036 93.3181 21.5332C93.7727 21.3629 94.2171 21.1391 94.651 20.8622L96.5729 24.185C95.8497 24.611 95.0644 24.9518 94.217 25.2073C93.3905 25.463 92.6052 25.5906 91.8613 25.5906Z" fill="#1D1A2F"/>
<path d="M104.717 11.2469L105.058 13.707L104.996 13.5153C105.533 12.5781 106.205 11.8539 107.011 11.3428C107.817 10.8102 108.788 10.544 109.924 10.544C110.668 10.544 111.319 10.6505 111.877 10.8635C112.456 11.0765 112.941 11.396 113.334 11.822C113.727 12.2266 113.995 12.7592 114.14 13.4195L113.985 13.4514C114.564 12.5781 115.256 11.8753 116.062 11.3428C116.888 10.8102 117.746 10.544 118.635 10.544C119.978 10.544 121.042 10.938 121.827 11.7261C122.633 12.493 123.047 13.494 123.067 14.7294V25.2088H118.759V16.5824C118.738 15.9647 118.645 15.4642 118.48 15.0808C118.314 14.6761 117.932 14.4524 117.333 14.4099C116.63 14.4099 116.031 14.6655 115.535 15.1766C115.06 15.6665 114.698 16.3056 114.45 17.0937C114.223 17.8604 114.109 18.6592 114.109 19.4898V25.2088H109.769V16.5824C109.749 15.9647 109.635 15.4642 109.428 15.0808C109.242 14.6761 108.85 14.4524 108.25 14.4099C107.569 14.4099 106.99 14.6655 106.515 15.1766C106.06 15.6665 105.709 16.2948 105.461 17.0617C105.233 17.8285 105.12 18.6165 105.12 19.4259V25.2088H100.78V11.2469H104.717Z" fill="#1D1A2F"/>
<path d="M127.075 31.9178L136.095 11.2467H140L131.259 31.9178H127.075ZM130.701 25.2724L124.068 11.2467H128.934L134.049 23.0359L130.701 25.2724Z" fill="#1D1A2F"/>
</svg>
